<svg width="24" height="19" viewBox="0 0 24 19" fill="none" xmlns="http://www.w3.org/2000/svg">
<path d="M2.2596 18.7499C1.62819 18.7499 1.09374 18.5312 0.656244 18.0937C0.218748 17.6562 0 17.1217 0 16.4903V2.2596C0 1.62819 0.218748 1.09374 0.656244 0.656244C1.09374 0.218748 1.62819 0 2.2596 0H21.4903C22.1217 0 22.6562 0.218748 23.0937 0.656244C23.5312 1.09374 23.7499 1.62819 23.7499 2.2596V16.4903C23.7499 17.1217 23.5312 17.6562 23.0937 18.0937C22.6562 18.5312 22.1217 18.7499 21.4903 18.7499H2.2596ZM11.875 10.072L1.87495 3.67779V16.4903C1.87495 16.6025 1.91101 16.6947 1.98314 16.7668C2.05526 16.8389 2.14741 16.875 2.2596 16.875H21.4903C21.6025 16.875 21.6947 16.8389 21.7668 16.7668C21.8389 16.6947 21.875 16.6025 21.875 16.4903V3.67779L11.875 10.072ZM11.875 8.12495L21.6826 1.87495H2.06728L11.875 8.12495ZM1.87495 16.4903C1.87495 16.6025 1.91101 16.6947 1.98314 16.7668C2.05526 16.8389 2.14741 16.875 2.2596 16.875H1.87495C1.87495 16.875 1.87495 16.8389 1.87495 16.7668C1.87495 16.6947 1.87495 16.6025 1.87495 16.4903Z" fill="#325B42"/>
</svg>
