<svg width="19" height="24" viewBox="0 0 19 24" fill="none" xmlns="http://www.w3.org/2000/svg">
<path d="M9.43505 11.7067C10.0584 11.7067 10.5909 11.4859 11.0324 11.0444C11.4739 10.6029 11.6947 10.0705 11.6947 9.44707C11.6947 8.82368 11.4739 8.29123 11.0324 7.84973C10.5909 7.40823 10.0584 7.18748 9.43505 7.18748C8.81166 7.18748 8.27921 7.40823 7.83771 7.84973C7.39621 8.29123 7.17546 8.82368 7.17546 9.44707C7.17546 10.0705 7.39621 10.6029 7.83771 11.0444C8.27921 11.4859 8.81166 11.7067 9.43505 11.7067ZM9.43505 21.2668C11.8806 19.0777 13.752 16.9779 15.0492 14.9675C16.3465 12.9571 16.9952 11.1963 16.9952 9.68505C16.9952 7.40621 16.2712 5.53281 14.8233 4.06486C13.3754 2.59691 11.5793 1.86293 9.43505 1.86293C7.29082 1.86293 5.49475 2.59691 4.04683 4.06486C2.59891 5.53281 1.87495 7.40621 1.87495 9.68505C1.87495 11.1963 2.52359 12.9571 3.82088 14.9675C5.11816 16.9779 6.98955 19.0777 9.43505 21.2668ZM9.43505 23.7619C6.28924 21.036 3.93027 18.4991 2.35816 16.1514C0.786055 13.8036 0 11.6482 0 9.68505C0 6.80046 0.933088 4.46513 2.79926 2.67908C4.66544 0.893026 6.87737 0 9.43505 0C11.9927 0 14.2047 0.893026 16.0708 2.67908C17.937 4.46513 18.8701 6.80046 18.8701 9.68505C18.8701 11.6482 18.0841 13.8036 16.5119 16.1514C14.9398 18.4991 12.5809 21.036 9.43505 23.7619Z" fill="#325B42"/>
</svg>
